<svg xmlns="http://www.w3.org/2000/svg" width="240" height="264"><g fill="none" fill-rule="evenodd" class="page-1"><g class="page-1__cc-logo-shape-flattened"><g class="page-1__cc-logo-shape-flattened__cc-logo-green"><path fill="#35B86D" d="M139.512 5.547l79.511 45.906a40 40 0 0120 34.641v91.812a40 40 0 01-20 34.641l-79.511 45.906a40 40 0 01-40 0L20 212.547a40 40 0 01-20-34.641V86.094a40 40 0 0120-34.641L99.512 5.547a40 40 0 0140 0z" class="page-1__cc-logo-shape-flattened__cc-logo-green__polygon"/><path fill="#1A202C" d="M129.532 49.801l53.591 31.813a5 5 0 01-.075 8.643l-25.063 14.295a10 10 0 01-9.969-.035l-23.494-13.616a10 10 0 00-9.728-.163l-.293.163-28 16.21a10 10 0 00-4.984 8.33l-.005.325v32.468a10 10 0 004.712 8.488l.277.167 28 16.21a10 10 0 009.728.163l.293-.163 23.494-13.616a10 10 0 019.968-.034l25.064 14.294a5 5 0 01.075 8.643l-53.59 31.813a20 20 0 01-20.042 0l-56-32.422a20 20 0 01-9.98-17.308V99.53a20 20 0 019.98-17.308l56-32.422a20 20 0 0120.041 0z" class="page-1__cc-logo-shape-flattened__cc-logo-green__path"/></g></g></g></svg>